<?xml version="1.0" encoding="iso-8859-1"?>
<!-- Generator: Adobe Illustrator 18.1.1, SVG Export Plug-In . SVG Version: 6.00 Build 0)  -->
<svg version="1.1" id="Capa_1" xmlns="http://www.w3.org/2000/svg" xmlns:xlink="http://www.w3.org/1999/xlink" x="0px" y="0px"
	 viewBox="0 0 456.556 456.556" style="enable-background:new 0 0 456.556 456.556;" xml:space="preserve">
<g>
	<path d="M383.883,184.953c-3.437,0-6.871-1.308-9.494-3.931c-5.245-5.245-5.245-13.75,0-18.995l49.747-49.747l-49.747-49.747
		c-5.245-5.245-5.245-13.75,0-18.995s13.743-5.245,18.988,0l59.245,59.245c5.245,5.245,5.245,13.75,0,18.995l-59.245,59.245
		C390.755,183.645,387.321,184.953,383.883,184.953z"/>
	<path d="M251.658,184.953c-2.588,0-5.2-0.741-7.504-2.301c-6.148-4.147-7.763-12.498-3.612-18.646l40.008-59.245
		c2.497-3.693,6.665-5.91,11.127-5.91h121.829c7.417,0,13.428,6.015,13.428,13.428c0,7.413-6.011,13.428-13.428,13.428H298.811
		l-36.015,53.335C260.201,182.883,255.966,184.953,251.658,184.953z"/>
	<path d="M135.257,357.33H13.428C6.011,357.33,0,351.315,0,343.901c0-7.413,6.011-13.428,13.428-13.428h114.695l39.424-58.377
		c4.154-6.141,12.498-7.77,18.642-3.609c6.148,4.147,7.763,12.498,3.612,18.646l-43.418,64.287
		C143.887,355.112,139.719,357.33,135.257,357.33z"/>
	<path d="M383.883,416.952c-3.437,0-6.871-1.308-9.494-3.931c-5.245-5.245-5.245-13.75,0-18.995l49.747-49.747l-49.747-49.747
		c-5.245-5.245-5.245-13.75,0-18.995c5.245-5.245,13.743-5.245,18.988,0l59.245,59.245c5.245,5.245,5.245,13.75,0,18.995
		l-59.245,59.245C390.755,415.644,387.321,416.952,383.883,416.952z"/>
	<path d="M413.506,357.707H291.677c-4.462,0-8.63-2.217-11.127-5.91L128.123,126.086H13.428C6.011,126.086,0,120.071,0,112.658
		c0-7.413,6.011-13.428,13.428-13.428h121.829c4.462,0,8.63,2.217,11.127,5.91l152.427,225.711h114.695
		c7.417,0,13.428,6.015,13.428,13.428C426.934,351.693,420.923,357.707,413.506,357.707z"/>
</g>
<g>
</g>
<g>
</g>
<g>
</g>
<g>
</g>
<g>
</g>
<g>
</g>
<g>
</g>
<g>
</g>
<g>
</g>
<g>
</g>
<g>
</g>
<g>
</g>
<g>
</g>
<g>
</g>
<g>
</g>
</svg>
