<?xml version="1.0" encoding="iso-8859-1"?>
<!-- Generator: Adobe Illustrator 18.1.1, SVG Export Plug-In . SVG Version: 6.00 Build 0)  -->
<svg version="1.1" id="Capa_1" xmlns="http://www.w3.org/2000/svg" xmlns:xlink="http://www.w3.org/1999/xlink" x="0px" y="0px"
	 viewBox="0 0 456.559 456.559" style="enable-background:new 0 0 456.559 456.559;" xml:space="preserve">
<g>
	<path d="M351.79,151.874c-3.434,0-6.875-1.308-9.498-3.931c-5.238-5.245-5.238-13.75,0-18.995l53.02-53.006l-53.02-53.013
		c-5.238-5.245-5.238-13.75,0-18.995c5.245-5.245,13.75-5.245,18.995,0l62.511,62.511c2.518,2.518,3.931,5.938,3.931,9.498
		c0,3.56-1.413,6.98-3.931,9.498l-62.511,62.504C358.665,150.566,355.224,151.874,351.79,151.874z"/>
	<path d="M42.958,227.428c-7.413,0-13.428-6.015-13.428-13.428v-80.932c0-38.907,31.647-70.554,70.554-70.554h314.218
		c7.413,0,13.428,6.015,13.428,13.428c0,7.413-6.015,13.428-13.428,13.428H100.083c-24.094,0-43.697,19.604-43.697,43.697V214
		C56.386,221.414,50.371,227.428,42.958,227.428z"/>
	<path d="M357.162,394.049H42.258c-7.413,0-13.428-6.015-13.428-13.428s6.015-13.428,13.428-13.428h314.903
		c24.101,0,43.704-19.604,43.704-43.697v-82.534c0-7.413,6.015-13.428,13.428-13.428c7.413,0,13.428,6.015,13.428,13.428v82.534
		C427.722,362.402,396.068,394.049,357.162,394.049z"/>
	<path d="M104.769,456.559c-3.434,0-6.875-1.308-9.498-3.931l-62.511-62.511c-2.518-2.518-3.931-5.938-3.931-9.498
		s1.413-6.98,3.931-9.498l62.511-62.504c5.245-5.245,13.75-5.245,18.995,0c5.238,5.245,5.238,13.75,0,18.995l-53.02,53.006
		l53.02,53.013c5.238,5.245,5.238,13.75,0,18.995C111.644,455.252,108.203,456.559,104.769,456.559z"/>
</g>
<g>
</g>
<g>
</g>
<g>
</g>
<g>
</g>
<g>
</g>
<g>
</g>
<g>
</g>
<g>
</g>
<g>
</g>
<g>
</g>
<g>
</g>
<g>
</g>
<g>
</g>
<g>
</g>
<g>
</g>
</svg>
